<svg width="500" height="500" viewBox="0 0 500 500" fill="none" xmlns="http://www.w3.org/2000/svg">
<rect width="500" height="500" rx="70" fill="url(#paint0_linear_1308_2)"/>
<path d="M193.667 267.333C193.667 289.424 211.576 307.333 233.667 307.333H307.333V381C307.333 403.091 289.424 421 267.333 421H120C97.9086 421 80 403.091 80 381V233.667C80 211.576 97.9086 193.667 120 193.667H193.667V267.333ZM381 80C403.091 80.0002 421 97.9087 421 120V267.333C421 289.424 403.091 307.333 381 307.333H307.333V233.667C307.333 211.576 289.424 193.667 267.333 193.667H193.667V120C193.667 97.9086 211.576 80 233.667 80H381Z" fill="white"/>
<defs>
<linearGradient id="paint0_linear_1308_2" x1="0" y1="250" x2="500" y2="250" gradientUnits="userSpaceOnUse">
<stop stop-color="#A47451"/>
<stop offset="0.16667" stop-color="#9C9881"/>
<stop offset="0.33333" stop-color="#73A09D"/>
<stop offset="0.5" stop-color="#3B899A"/>
<stop offset="0.66667" stop-color="#095B79"/>
<stop offset="0.83333" stop-color="#002847"/>
<stop offset="1" stop-color="#000116"/>
</linearGradient>
</defs>
</svg>
